<?xml version="1.0" standalone="no"?>
<!DOCTYPE svg PUBLIC "-//W3C//DTD SVG 20010904//EN"
 "http://www.w3.org/TR/2001/REC-SVG-20010904/DTD/svg10.dtd">
<svg version="1.0" xmlns="http://www.w3.org/2000/svg"
 width="260.000000pt" height="260.000000pt" viewBox="0 0 260.000000 260.000000"
 preserveAspectRatio="xMidYMid meet">
<metadata>
Created by potrace 1.11, written by Peter Selinger 2001-2013
</metadata>
<g transform="translate(0.000000,260.000000) scale(0.100000,-0.100000)"
fill="#000000" stroke="none">
<path d="M1165 2433 c-391 -47 -660 -186 -854 -443 -162 -215 -240 -466 -228
-740 17 -408 232 -756 577 -934 407 -209 966 -191 1363 45 90 54 246 207 311
307 187 285 238 670 130 991 -59 175 -146 315 -278 446 -148 147 -310 239
-511 290 -151 38 -372 55 -510 38z m264 -214 c159 -36 285 -161 345 -339 48
-143 67 -286 73 -531 8 -336 -22 -552 -98 -707 -80 -164 -246 -262 -444 -262
-153 0 -261 46 -364 155 -142 153 -197 393 -188 825 5 251 19 363 62 497 59
188 179 315 338 358 61 16 213 19 276 4z m-934 -712 c27 -27 35 -45 45 -107
15 -89 7 -200 -18 -250 -40 -77 -140 -91 -198 -27 -74 80 -73 310 1 384 29 29
40 33 85 33 45 0 56 -4 85 -33z m1775 5 c38 -39 53 -98 53 -213 0 -79 -4 -105
-22 -142 -49 -101 -177 -100 -228 1 -25 52 -26 262 -1 309 28 51 64 73 120 73
41 0 54 -5 78 -28z"/>
</g>
</svg>
