<svg xmlns="http://www.w3.org/2000/svg" xmlns:xlink="http://www.w3.org/1999/xlink" viewBox="0 0 56 70" version="1.1" x="0px" y="0px"><g stroke="none" stroke-width="1" fill="none" fill-rule="evenodd"><g fill="#000000" fill-rule="nonzero"><path d="M35.30957,6.88965 C37.1878012,6.89108844 39.0488366,7.2475247 40.79468,7.94019 C39.7163355,6.12361417 37.7629059,5.00714248 35.65039,5 L20.34961,5 C18.2370016,5.00714913 16.2834863,6.12366334 15.20508,7.94031 C16.9509765,7.24752573 18.8121056,6.89104639 20.69043,6.88965 L35.30957,6.88965 Z"/><path d="M12.625,8.89648 C13.5801221,5.41700264 16.741424,3.00386421 20.34961,3 L35.65039,3 C39.2588836,3.00389647 42.4203235,5.41754136 43.375,8.89746 L45.27417,15.85791 C46.9413404,16.0083201 48.5523136,16.5366691 49.98474,17.40283 L47.84474,9.58398 C46.2977442,3.93343548 41.1680441,0.0114349751 35.30957,-1.77635684e-15 L20.69043,-1.77635684e-15 C14.8322662,0.0114037227 9.70270752,3.93289821 8.15527,9.583 L6.01538,17.40259 C7.4476918,16.5360993 9.05870493,16.0075697 10.72595,15.85718 L12.625,8.89648 Z"/><path d="M49,30 C51.0696361,29.998537 53.0758911,30.7139762 54.67761,32.02466 L53.12891,24.89941 C52.0639697,20.0828473 47.3318112,17.01141 42.499,18 L30.24316,20.55371 C28.763842,20.8642549 27.236158,20.8642549 25.75684,20.55371 L13.501,18 C8.66762197,17.0100998 3.93443946,20.0826381 2.87109,24.90039 L1.32251,32.02466 C2.92423399,30.7139619 4.93042697,29.9985722 7,30 L49,30 Z"/><path d="M49,32 L7,32 C3.1359484,32.0046835 0.0046835371,35.1359484 0,39 L0,49 C0.00467803981,52.8640539 3.13594612,55.995322 7,56 L49,56 C52.8640562,55.9953275 55.9953275,52.8640562 56,49 L56,39 C55.995322,35.1359461 52.8640539,32.004678 49,32 Z M8.29,34.29 C8.38558246,34.1995326 8.49763457,34.128244 8.62008,34.08 C8.8023981,33.9998319 9.00521618,33.9786614 9.20016,34.01945 C9.26265167,34.0308947 9.3231673,34.0512877 9.37984,34.08 C9.44134042,34.0996786 9.49886905,34.1300951 9.54976,34.16984 C9.60713918,34.2043123 9.6608332,34.2445761 9.71,34.29 C9.89427461,34.4806322 9.99811802,34.7348695 10,35 C9.99839455,35.1306438 9.97118798,35.2597052 9.91992,35.37988 C9.82889171,35.6310438 9.63108381,35.8288517 9.37992,35.91988 C9.25973555,35.9711668 9.13066001,35.9983871 9,36 C8.73486945,35.998118 8.48063215,35.8942746 8.29,35.71 C8.2021206,35.6102477 8.12790285,35.4992473 8.0693,35.37992 C8.02145472,35.2590655 7.99790569,35.1299638 8,35 C8.00346392,34.7351884 8.10707823,34.481512 8.29,34.29 Z M2.293,40.293 L5.293,37.293 C5.68448095,36.908547 6.31264252,36.9113917 6.7006254,37.2993746 C7.08860828,37.6873575 7.09145299,38.3155191 6.707,38.707 L3.707,41.707 C3.31551905,42.091453 2.68735748,42.0886083 2.2993746,41.7006254 C1.91139172,41.3126425 1.90854701,40.6844809 2.293,40.293 Z M15.707,35.707 L4.707,46.707 C4.31551905,47.091453 3.68735748,47.0886083 3.2993746,46.7006254 C2.91139172,46.3126425 2.90854701,45.6844809 3.293,45.293 L14.293,34.293 C14.6844809,33.908547 15.3126425,33.9113917 15.7006254,34.2993746 C16.0886083,34.6873575 16.091453,35.3155191 15.707,35.707 Z"/></g></g></svg>
