<svg xmlns="http://www.w3.org/2000/svg" viewBox="0 0 60 75" x="0px" y="0px"><defs><style>.cls-1{fill:none;stroke:#000;stroke-linecap:round;stroke-linejoin:round;stroke-width:2px;}</style></defs><rect class="cls-1" x="1" y="33" width="58" height="26" rx="8" ry="8"/><path class="cls-1" d="M1,40,3.894,26.68745A10,10,0,0,1,15.70534,19.022L27.96046,21.5751a10,10,0,0,0,4.07908,0L44.29466,19.022A10,10,0,0,1,56.106,26.68745L59,40"/><line class="cls-1" x1="5" y1="43" x2="8" y2="40"/><line class="cls-1" x1="11" y1="37" x2="11" y2="37"/><line class="cls-1" x1="6" y1="48" x2="17" y2="37"/><path class="cls-1" d="M53.76,22.11V22.1L50.81,11.32A13.99831,13.99831,0,0,0,37.31,1H22.69A13.99831,13.99831,0,0,0,9.19,11.32L6.24,22.1"/><path class="cls-1" d="M44.63,11.97a13.84356,13.84356,0,0,0-7.32-2.08H22.69a13.84356,13.84356,0,0,0-7.32,2.08"/><path class="cls-1" d="M46.5,18.82l-2.09-7.66A7.00073,7.00073,0,0,0,37.65,6H22.35a7.00073,7.00073,0,0,0-6.76,5.16L13.5,18.82"/></svg>
